<mxfile host="app.diagrams.net" modified="2024-03-13T01:08:33.178Z" agent="Mozilla/5.0 (Windows NT 10.0; Win64; x64) AppleWebKit/537.36 (KHTML, like Gecko) Chrome/122.0.0.0 Safari/537.36" etag="7H5dC8xUDzhE_5IVDPNJ" version="24.0.5" type="device">
  <diagram name="Página-1" id="MgMiqdpxl-yZenQ1sCQV">
    <mxGraphModel dx="2162" dy="1265" grid="0" gridSize="10" guides="1" tooltips="1" connect="1" arrows="1" fold="1" page="0" pageScale="1" pageWidth="827" pageHeight="1169" math="0" shadow="0">
      <root>
        <mxCell id="0" />
        <mxCell id="1" parent="0" />
        <mxCell id="rxXCoBThwXI0Z-Vm7pwe-10" style="edgeStyle=none;curved=1;rounded=0;orthogonalLoop=1;jettySize=auto;html=1;fontSize=12;startSize=8;endSize=8;" edge="1" parent="1" source="rxXCoBThwXI0Z-Vm7pwe-1" target="rxXCoBThwXI0Z-Vm7pwe-3">
          <mxGeometry relative="1" as="geometry" />
        </mxCell>
        <mxCell id="rxXCoBThwXI0Z-Vm7pwe-1" value="" style="strokeWidth=2;html=1;shape=mxgraph.flowchart.start_2;whiteSpace=wrap;" vertex="1" parent="1">
          <mxGeometry x="159" y="-144" width="100" height="100" as="geometry" />
        </mxCell>
        <mxCell id="rxXCoBThwXI0Z-Vm7pwe-17" style="edgeStyle=orthogonalEdgeStyle;rounded=0;orthogonalLoop=1;jettySize=auto;html=1;fontSize=12;startSize=8;endSize=8;entryX=0.5;entryY=0;entryDx=0;entryDy=0;entryPerimeter=0;" edge="1" parent="1" target="rxXCoBThwXI0Z-Vm7pwe-14">
          <mxGeometry relative="1" as="geometry">
            <mxPoint x="23" y="229" as="targetPoint" />
            <mxPoint x="162" y="229" as="sourcePoint" />
          </mxGeometry>
        </mxCell>
        <mxCell id="rxXCoBThwXI0Z-Vm7pwe-2" value="ID &amp;gt;= 18" style="strokeWidth=2;html=1;shape=mxgraph.flowchart.decision;whiteSpace=wrap;" vertex="1" parent="1">
          <mxGeometry x="164" y="179" width="100" height="100" as="geometry" />
        </mxCell>
        <mxCell id="rxXCoBThwXI0Z-Vm7pwe-11" style="edgeStyle=none;curved=1;rounded=0;orthogonalLoop=1;jettySize=auto;html=1;fontSize=12;startSize=8;endSize=8;" edge="1" parent="1" source="rxXCoBThwXI0Z-Vm7pwe-3" target="rxXCoBThwXI0Z-Vm7pwe-4">
          <mxGeometry relative="1" as="geometry" />
        </mxCell>
        <mxCell id="rxXCoBThwXI0Z-Vm7pwe-3" value="&quot;Digite a Idade&quot;" style="strokeWidth=2;html=1;shape=mxgraph.flowchart.display;whiteSpace=wrap;" vertex="1" parent="1">
          <mxGeometry x="159" y="-5" width="100" height="60" as="geometry" />
        </mxCell>
        <mxCell id="rxXCoBThwXI0Z-Vm7pwe-4" value="ID" style="html=1;strokeWidth=2;shape=manualInput;whiteSpace=wrap;rounded=1;size=26;arcSize=11;" vertex="1" parent="1">
          <mxGeometry x="159" y="93" width="100" height="61" as="geometry" />
        </mxCell>
        <mxCell id="rxXCoBThwXI0Z-Vm7pwe-5" value="&quot;Pode Dirigir&quot;" style="strokeWidth=2;html=1;shape=mxgraph.flowchart.display;whiteSpace=wrap;" vertex="1" parent="1">
          <mxGeometry x="301" y="296" width="100" height="60" as="geometry" />
        </mxCell>
        <mxCell id="rxXCoBThwXI0Z-Vm7pwe-44" style="edgeStyle=none;curved=1;rounded=0;orthogonalLoop=1;jettySize=auto;html=1;fontSize=12;startSize=8;endSize=8;" edge="1" parent="1" source="rxXCoBThwXI0Z-Vm7pwe-6" target="rxXCoBThwXI0Z-Vm7pwe-43">
          <mxGeometry relative="1" as="geometry" />
        </mxCell>
        <mxCell id="rxXCoBThwXI0Z-Vm7pwe-6" value="" style="verticalLabelPosition=bottom;verticalAlign=top;html=1;shape=mxgraph.flowchart.on-page_reference;" vertex="1" parent="1">
          <mxGeometry x="164" y="380" width="60" height="60" as="geometry" />
        </mxCell>
        <mxCell id="rxXCoBThwXI0Z-Vm7pwe-12" style="edgeStyle=none;curved=1;rounded=0;orthogonalLoop=1;jettySize=auto;html=1;entryX=0.5;entryY=0;entryDx=0;entryDy=0;entryPerimeter=0;fontSize=12;startSize=8;endSize=8;" edge="1" parent="1" source="rxXCoBThwXI0Z-Vm7pwe-4" target="rxXCoBThwXI0Z-Vm7pwe-2">
          <mxGeometry relative="1" as="geometry" />
        </mxCell>
        <mxCell id="rxXCoBThwXI0Z-Vm7pwe-14" value="&quot;Ñ Pode Dirigir&quot;" style="strokeWidth=2;html=1;shape=mxgraph.flowchart.display;whiteSpace=wrap;" vertex="1" parent="1">
          <mxGeometry x="-17" y="299" width="100" height="60" as="geometry" />
        </mxCell>
        <mxCell id="rxXCoBThwXI0Z-Vm7pwe-21" style="edgeStyle=orthogonalEdgeStyle;rounded=0;orthogonalLoop=1;jettySize=auto;html=1;fontSize=12;startSize=8;endSize=8;exitX=0.5;exitY=1;exitDx=0;exitDy=0;exitPerimeter=0;entryX=1;entryY=0.5;entryDx=0;entryDy=0;entryPerimeter=0;" edge="1" parent="1" source="rxXCoBThwXI0Z-Vm7pwe-5" target="rxXCoBThwXI0Z-Vm7pwe-6">
          <mxGeometry relative="1" as="geometry">
            <mxPoint x="323" y="419" as="targetPoint" />
            <mxPoint x="284" y="249" as="sourcePoint" />
          </mxGeometry>
        </mxCell>
        <mxCell id="rxXCoBThwXI0Z-Vm7pwe-23" style="edgeStyle=orthogonalEdgeStyle;rounded=0;orthogonalLoop=1;jettySize=auto;html=1;fontSize=12;startSize=8;endSize=8;exitX=0.5;exitY=1;exitDx=0;exitDy=0;exitPerimeter=0;entryX=0.017;entryY=0.633;entryDx=0;entryDy=0;entryPerimeter=0;" edge="1" parent="1" source="rxXCoBThwXI0Z-Vm7pwe-14" target="rxXCoBThwXI0Z-Vm7pwe-6">
          <mxGeometry relative="1" as="geometry">
            <mxPoint x="33" y="421" as="targetPoint" />
            <mxPoint x="304" y="269" as="sourcePoint" />
          </mxGeometry>
        </mxCell>
        <mxCell id="rxXCoBThwXI0Z-Vm7pwe-25" value="" style="strokeWidth=2;html=1;shape=mxgraph.flowchart.start_2;whiteSpace=wrap;" vertex="1" parent="1">
          <mxGeometry x="617" y="-259" width="100" height="100" as="geometry" />
        </mxCell>
        <mxCell id="rxXCoBThwXI0Z-Vm7pwe-47" style="edgeStyle=none;curved=1;rounded=0;orthogonalLoop=1;jettySize=auto;html=1;fontSize=12;startSize=8;endSize=8;exitX=0.5;exitY=1;exitDx=0;exitDy=0;exitPerimeter=0;" edge="1" parent="1" source="rxXCoBThwXI0Z-Vm7pwe-26" target="rxXCoBThwXI0Z-Vm7pwe-28">
          <mxGeometry relative="1" as="geometry" />
        </mxCell>
        <mxCell id="rxXCoBThwXI0Z-Vm7pwe-26" value="&quot;Digite o primeiro valor&quot;" style="strokeWidth=2;html=1;shape=mxgraph.flowchart.display;whiteSpace=wrap;" vertex="1" parent="1">
          <mxGeometry x="617" y="-91" width="100" height="60" as="geometry" />
        </mxCell>
        <mxCell id="rxXCoBThwXI0Z-Vm7pwe-49" style="edgeStyle=none;curved=1;rounded=0;orthogonalLoop=1;jettySize=auto;html=1;fontSize=12;startSize=8;endSize=8;" edge="1" parent="1" source="rxXCoBThwXI0Z-Vm7pwe-27" target="rxXCoBThwXI0Z-Vm7pwe-29">
          <mxGeometry relative="1" as="geometry" />
        </mxCell>
        <mxCell id="rxXCoBThwXI0Z-Vm7pwe-27" value="&quot;Digite o segundo valor&quot;" style="strokeWidth=2;html=1;shape=mxgraph.flowchart.display;whiteSpace=wrap;" vertex="1" parent="1">
          <mxGeometry x="617" y="168" width="100" height="60" as="geometry" />
        </mxCell>
        <mxCell id="rxXCoBThwXI0Z-Vm7pwe-28" value="v01" style="html=1;strokeWidth=2;shape=manualInput;whiteSpace=wrap;rounded=1;size=26;arcSize=11;" vertex="1" parent="1">
          <mxGeometry x="617" y="26" width="100" height="61" as="geometry" />
        </mxCell>
        <mxCell id="rxXCoBThwXI0Z-Vm7pwe-29" value="v02" style="html=1;strokeWidth=2;shape=manualInput;whiteSpace=wrap;rounded=1;size=26;arcSize=11;" vertex="1" parent="1">
          <mxGeometry x="617" y="269" width="100" height="61" as="geometry" />
        </mxCell>
        <mxCell id="rxXCoBThwXI0Z-Vm7pwe-30" value="v01 = v02" style="strokeWidth=2;html=1;shape=mxgraph.flowchart.decision;whiteSpace=wrap;" vertex="1" parent="1">
          <mxGeometry x="619" y="365" width="100" height="100" as="geometry" />
        </mxCell>
        <mxCell id="rxXCoBThwXI0Z-Vm7pwe-31" value="&quot;Os números são iguais&quot;" style="strokeWidth=2;html=1;shape=mxgraph.flowchart.display;whiteSpace=wrap;" vertex="1" parent="1">
          <mxGeometry x="811" y="463" width="100" height="60" as="geometry" />
        </mxCell>
        <mxCell id="rxXCoBThwXI0Z-Vm7pwe-32" value="&quot;Os números são diferentes&quot;" style="strokeWidth=2;html=1;shape=mxgraph.flowchart.display;whiteSpace=wrap;" vertex="1" parent="1">
          <mxGeometry x="447" y="460" width="100" height="60" as="geometry" />
        </mxCell>
        <mxCell id="rxXCoBThwXI0Z-Vm7pwe-33" value="" style="verticalLabelPosition=bottom;verticalAlign=top;html=1;shape=mxgraph.flowchart.on-page_reference;" vertex="1" parent="1">
          <mxGeometry x="637" y="544" width="60" height="60" as="geometry" />
        </mxCell>
        <mxCell id="rxXCoBThwXI0Z-Vm7pwe-36" value="" style="endArrow=classic;html=1;rounded=0;fontSize=12;startSize=8;endSize=8;exitX=1;exitY=0.5;exitDx=0;exitDy=0;exitPerimeter=0;entryX=0.5;entryY=0;entryDx=0;entryDy=0;entryPerimeter=0;edgeStyle=orthogonalEdgeStyle;" edge="1" parent="1" source="rxXCoBThwXI0Z-Vm7pwe-30" target="rxXCoBThwXI0Z-Vm7pwe-31">
          <mxGeometry width="50" height="50" relative="1" as="geometry">
            <mxPoint x="798" y="396" as="sourcePoint" />
            <mxPoint x="848" y="346" as="targetPoint" />
          </mxGeometry>
        </mxCell>
        <mxCell id="rxXCoBThwXI0Z-Vm7pwe-37" style="edgeStyle=orthogonalEdgeStyle;rounded=0;orthogonalLoop=1;jettySize=auto;html=1;entryX=0.5;entryY=0;entryDx=0;entryDy=0;entryPerimeter=0;fontSize=12;startSize=8;endSize=8;" edge="1" parent="1" source="rxXCoBThwXI0Z-Vm7pwe-30" target="rxXCoBThwXI0Z-Vm7pwe-32">
          <mxGeometry relative="1" as="geometry" />
        </mxCell>
        <mxCell id="rxXCoBThwXI0Z-Vm7pwe-39" style="edgeStyle=orthogonalEdgeStyle;rounded=0;orthogonalLoop=1;jettySize=auto;html=1;entryX=0;entryY=0.5;entryDx=0;entryDy=0;entryPerimeter=0;fontSize=12;startSize=8;endSize=8;exitX=0.5;exitY=1;exitDx=0;exitDy=0;exitPerimeter=0;" edge="1" parent="1" source="rxXCoBThwXI0Z-Vm7pwe-32" target="rxXCoBThwXI0Z-Vm7pwe-33">
          <mxGeometry relative="1" as="geometry">
            <mxPoint x="497" y="593" as="sourcePoint" />
            <Array as="points">
              <mxPoint x="497" y="573" />
            </Array>
          </mxGeometry>
        </mxCell>
        <mxCell id="rxXCoBThwXI0Z-Vm7pwe-40" style="edgeStyle=orthogonalEdgeStyle;rounded=0;orthogonalLoop=1;jettySize=auto;html=1;entryX=1;entryY=0.5;entryDx=0;entryDy=0;entryPerimeter=0;fontSize=12;startSize=8;endSize=8;exitX=0.5;exitY=1;exitDx=0;exitDy=0;exitPerimeter=0;" edge="1" parent="1" source="rxXCoBThwXI0Z-Vm7pwe-31" target="rxXCoBThwXI0Z-Vm7pwe-33">
          <mxGeometry relative="1" as="geometry" />
        </mxCell>
        <mxCell id="rxXCoBThwXI0Z-Vm7pwe-41" style="edgeStyle=orthogonalEdgeStyle;rounded=0;orthogonalLoop=1;jettySize=auto;html=1;entryX=0.5;entryY=0;entryDx=0;entryDy=0;entryPerimeter=0;fontSize=12;startSize=8;endSize=8;exitX=1;exitY=0.5;exitDx=0;exitDy=0;exitPerimeter=0;" edge="1" parent="1" source="rxXCoBThwXI0Z-Vm7pwe-2" target="rxXCoBThwXI0Z-Vm7pwe-5">
          <mxGeometry relative="1" as="geometry" />
        </mxCell>
        <mxCell id="rxXCoBThwXI0Z-Vm7pwe-42" value="FIM" style="strokeWidth=2;html=1;shape=mxgraph.flowchart.terminator;whiteSpace=wrap;" vertex="1" parent="1">
          <mxGeometry x="617" y="654" width="100" height="60" as="geometry" />
        </mxCell>
        <mxCell id="rxXCoBThwXI0Z-Vm7pwe-43" value="FIM" style="strokeWidth=2;html=1;shape=mxgraph.flowchart.terminator;whiteSpace=wrap;" vertex="1" parent="1">
          <mxGeometry x="142" y="496" width="100" height="60" as="geometry" />
        </mxCell>
        <mxCell id="rxXCoBThwXI0Z-Vm7pwe-45" style="edgeStyle=none;curved=1;rounded=0;orthogonalLoop=1;jettySize=auto;html=1;entryX=0.5;entryY=0;entryDx=0;entryDy=0;entryPerimeter=0;fontSize=12;startSize=8;endSize=8;" edge="1" parent="1" source="rxXCoBThwXI0Z-Vm7pwe-33" target="rxXCoBThwXI0Z-Vm7pwe-42">
          <mxGeometry relative="1" as="geometry" />
        </mxCell>
        <mxCell id="rxXCoBThwXI0Z-Vm7pwe-46" style="edgeStyle=none;curved=1;rounded=0;orthogonalLoop=1;jettySize=auto;html=1;entryX=0.5;entryY=0;entryDx=0;entryDy=0;entryPerimeter=0;fontSize=12;startSize=8;endSize=8;" edge="1" parent="1" source="rxXCoBThwXI0Z-Vm7pwe-25" target="rxXCoBThwXI0Z-Vm7pwe-26">
          <mxGeometry relative="1" as="geometry" />
        </mxCell>
        <mxCell id="rxXCoBThwXI0Z-Vm7pwe-48" style="edgeStyle=none;curved=1;rounded=0;orthogonalLoop=1;jettySize=auto;html=1;entryX=0.5;entryY=0;entryDx=0;entryDy=0;entryPerimeter=0;fontSize=12;startSize=8;endSize=8;" edge="1" parent="1" source="rxXCoBThwXI0Z-Vm7pwe-28" target="rxXCoBThwXI0Z-Vm7pwe-27">
          <mxGeometry relative="1" as="geometry" />
        </mxCell>
        <mxCell id="rxXCoBThwXI0Z-Vm7pwe-50" style="edgeStyle=none;curved=1;rounded=0;orthogonalLoop=1;jettySize=auto;html=1;entryX=0.45;entryY=0.09;entryDx=0;entryDy=0;entryPerimeter=0;fontSize=12;startSize=8;endSize=8;" edge="1" parent="1" source="rxXCoBThwXI0Z-Vm7pwe-29" target="rxXCoBThwXI0Z-Vm7pwe-30">
          <mxGeometry relative="1" as="geometry" />
        </mxCell>
        <mxCell id="rxXCoBThwXI0Z-Vm7pwe-65" style="edgeStyle=none;curved=1;rounded=0;orthogonalLoop=1;jettySize=auto;html=1;fontSize=12;startSize=8;endSize=8;" edge="1" parent="1" source="rxXCoBThwXI0Z-Vm7pwe-51" target="rxXCoBThwXI0Z-Vm7pwe-52">
          <mxGeometry relative="1" as="geometry" />
        </mxCell>
        <mxCell id="rxXCoBThwXI0Z-Vm7pwe-51" value="" style="strokeWidth=2;html=1;shape=mxgraph.flowchart.start_2;whiteSpace=wrap;" vertex="1" parent="1">
          <mxGeometry x="1162" y="-332" width="100" height="100" as="geometry" />
        </mxCell>
        <mxCell id="rxXCoBThwXI0Z-Vm7pwe-76" style="edgeStyle=none;curved=1;rounded=0;orthogonalLoop=1;jettySize=auto;html=1;entryX=0.5;entryY=0;entryDx=0;entryDy=0;fontSize=12;startSize=8;endSize=8;" edge="1" parent="1" source="rxXCoBThwXI0Z-Vm7pwe-52" target="rxXCoBThwXI0Z-Vm7pwe-53">
          <mxGeometry relative="1" as="geometry" />
        </mxCell>
        <mxCell id="rxXCoBThwXI0Z-Vm7pwe-52" value="&quot;Digite o ano do carro&quot;" style="strokeWidth=2;html=1;shape=mxgraph.flowchart.display;whiteSpace=wrap;" vertex="1" parent="1">
          <mxGeometry x="1162" y="-185" width="100" height="65" as="geometry" />
        </mxCell>
        <mxCell id="rxXCoBThwXI0Z-Vm7pwe-53" value="anocar" style="html=1;strokeWidth=2;shape=manualInput;whiteSpace=wrap;rounded=1;size=26;arcSize=11;" vertex="1" parent="1">
          <mxGeometry x="1167" y="-88" width="100" height="61" as="geometry" />
        </mxCell>
        <mxCell id="rxXCoBThwXI0Z-Vm7pwe-81" style="edgeStyle=orthogonalEdgeStyle;rounded=0;orthogonalLoop=1;jettySize=auto;html=1;entryX=0.5;entryY=0;entryDx=0;entryDy=0;fontSize=12;startSize=8;endSize=8;" edge="1" parent="1" source="rxXCoBThwXI0Z-Vm7pwe-54" target="rxXCoBThwXI0Z-Vm7pwe-57">
          <mxGeometry relative="1" as="geometry" />
        </mxCell>
        <mxCell id="rxXCoBThwXI0Z-Vm7pwe-54" value="anocar &amp;lt;=1990" style="strokeWidth=2;html=1;shape=mxgraph.flowchart.decision;whiteSpace=wrap;" vertex="1" parent="1">
          <mxGeometry x="1167" y="154" width="100" height="100" as="geometry" />
        </mxCell>
        <mxCell id="rxXCoBThwXI0Z-Vm7pwe-57" value="tax=precar*0,01" style="rounded=1;whiteSpace=wrap;html=1;absoluteArcSize=1;arcSize=14;strokeWidth=2;" vertex="1" parent="1">
          <mxGeometry x="1311" y="299" width="100" height="100" as="geometry" />
        </mxCell>
        <mxCell id="rxXCoBThwXI0Z-Vm7pwe-58" value="&quot;Digite o preço do carro&quot;" style="strokeWidth=2;html=1;shape=mxgraph.flowchart.display;whiteSpace=wrap;" vertex="1" parent="1">
          <mxGeometry x="1167" y="-12" width="100" height="60" as="geometry" />
        </mxCell>
        <mxCell id="rxXCoBThwXI0Z-Vm7pwe-79" style="edgeStyle=none;curved=1;rounded=0;orthogonalLoop=1;jettySize=auto;html=1;fontSize=12;startSize=8;endSize=8;" edge="1" parent="1" source="rxXCoBThwXI0Z-Vm7pwe-59" target="rxXCoBThwXI0Z-Vm7pwe-54">
          <mxGeometry relative="1" as="geometry" />
        </mxCell>
        <mxCell id="rxXCoBThwXI0Z-Vm7pwe-59" value="precar" style="html=1;strokeWidth=2;shape=manualInput;whiteSpace=wrap;rounded=1;size=26;arcSize=11;" vertex="1" parent="1">
          <mxGeometry x="1164" y="63" width="100" height="61" as="geometry" />
        </mxCell>
        <mxCell id="rxXCoBThwXI0Z-Vm7pwe-82" style="edgeStyle=none;curved=1;rounded=0;orthogonalLoop=1;jettySize=auto;html=1;fontSize=12;startSize=8;endSize=8;" edge="1" parent="1" source="rxXCoBThwXI0Z-Vm7pwe-60" target="rxXCoBThwXI0Z-Vm7pwe-63">
          <mxGeometry relative="1" as="geometry" />
        </mxCell>
        <mxCell id="rxXCoBThwXI0Z-Vm7pwe-60" value="tax=precar*0,015" style="rounded=1;whiteSpace=wrap;html=1;absoluteArcSize=1;arcSize=14;strokeWidth=2;" vertex="1" parent="1">
          <mxGeometry x="1036" y="279" width="100" height="100" as="geometry" />
        </mxCell>
        <mxCell id="rxXCoBThwXI0Z-Vm7pwe-61" value="&quot;O valor da taxa é de &quot;, tax" style="strokeWidth=2;html=1;shape=mxgraph.flowchart.display;whiteSpace=wrap;" vertex="1" parent="1">
          <mxGeometry x="1174" y="460" width="100" height="60" as="geometry" />
        </mxCell>
        <mxCell id="rxXCoBThwXI0Z-Vm7pwe-63" value="" style="verticalLabelPosition=bottom;verticalAlign=top;html=1;shape=mxgraph.flowchart.on-page_reference;" vertex="1" parent="1">
          <mxGeometry x="1191" y="312" width="60" height="60" as="geometry" />
        </mxCell>
        <mxCell id="rxXCoBThwXI0Z-Vm7pwe-64" value="FIM" style="strokeWidth=2;html=1;shape=mxgraph.flowchart.terminator;whiteSpace=wrap;" vertex="1" parent="1">
          <mxGeometry x="1174" y="597" width="100" height="60" as="geometry" />
        </mxCell>
        <mxCell id="rxXCoBThwXI0Z-Vm7pwe-66" style="edgeStyle=none;curved=1;rounded=0;orthogonalLoop=1;jettySize=auto;html=1;fontSize=12;startSize=8;endSize=8;" edge="1" parent="1" source="rxXCoBThwXI0Z-Vm7pwe-67" target="rxXCoBThwXI0Z-Vm7pwe-68">
          <mxGeometry relative="1" as="geometry" />
        </mxCell>
        <mxCell id="rxXCoBThwXI0Z-Vm7pwe-67" value="" style="strokeWidth=2;html=1;shape=mxgraph.flowchart.start_2;whiteSpace=wrap;" vertex="1" parent="1">
          <mxGeometry x="1688" y="-327" width="100" height="100" as="geometry" />
        </mxCell>
        <mxCell id="rxXCoBThwXI0Z-Vm7pwe-68" value="&quot;Digite a primeira nota&quot;" style="strokeWidth=2;html=1;shape=mxgraph.flowchart.display;whiteSpace=wrap;" vertex="1" parent="1">
          <mxGeometry x="1684" y="-183" width="100" height="65" as="geometry" />
        </mxCell>
        <mxCell id="rxXCoBThwXI0Z-Vm7pwe-69" value="p1" style="html=1;strokeWidth=2;shape=manualInput;whiteSpace=wrap;rounded=1;size=26;arcSize=11;" vertex="1" parent="1">
          <mxGeometry x="1688" y="-95" width="100" height="61" as="geometry" />
        </mxCell>
        <mxCell id="rxXCoBThwXI0Z-Vm7pwe-70" value="med&amp;gt;=6" style="strokeWidth=2;html=1;shape=mxgraph.flowchart.decision;whiteSpace=wrap;" vertex="1" parent="1">
          <mxGeometry x="1690" y="316" width="100" height="100" as="geometry" />
        </mxCell>
        <mxCell id="rxXCoBThwXI0Z-Vm7pwe-88" style="edgeStyle=none;curved=1;rounded=0;orthogonalLoop=1;jettySize=auto;html=1;exitX=0.5;exitY=1;exitDx=0;exitDy=0;exitPerimeter=0;entryX=0.5;entryY=0;entryDx=0;entryDy=0;fontSize=12;startSize=8;endSize=8;" edge="1" parent="1" source="rxXCoBThwXI0Z-Vm7pwe-71" target="rxXCoBThwXI0Z-Vm7pwe-72">
          <mxGeometry relative="1" as="geometry" />
        </mxCell>
        <mxCell id="rxXCoBThwXI0Z-Vm7pwe-71" value="&quot;Digite a segunda nota&quot;" style="strokeWidth=2;html=1;shape=mxgraph.flowchart.display;whiteSpace=wrap;" vertex="1" parent="1">
          <mxGeometry x="1690" y="-12" width="100" height="60" as="geometry" />
        </mxCell>
        <mxCell id="rxXCoBThwXI0Z-Vm7pwe-90" style="edgeStyle=none;curved=1;rounded=0;orthogonalLoop=1;jettySize=auto;html=1;entryX=0.5;entryY=0;entryDx=0;entryDy=0;fontSize=12;startSize=8;endSize=8;" edge="1" parent="1" source="rxXCoBThwXI0Z-Vm7pwe-72" target="rxXCoBThwXI0Z-Vm7pwe-73">
          <mxGeometry relative="1" as="geometry" />
        </mxCell>
        <mxCell id="rxXCoBThwXI0Z-Vm7pwe-72" value="p2" style="html=1;strokeWidth=2;shape=manualInput;whiteSpace=wrap;rounded=1;size=26;arcSize=11;" vertex="1" parent="1">
          <mxGeometry x="1690" y="75" width="100" height="61" as="geometry" />
        </mxCell>
        <mxCell id="rxXCoBThwXI0Z-Vm7pwe-73" value="med=(p1+p2)/2" style="rounded=1;whiteSpace=wrap;html=1;absoluteArcSize=1;arcSize=14;strokeWidth=2;" vertex="1" parent="1">
          <mxGeometry x="1690" y="169" width="100" height="100" as="geometry" />
        </mxCell>
        <mxCell id="rxXCoBThwXI0Z-Vm7pwe-74" value="&quot;Aprovado&quot;" style="strokeWidth=2;html=1;shape=mxgraph.flowchart.display;whiteSpace=wrap;" vertex="1" parent="1">
          <mxGeometry x="1825" y="438" width="100" height="60" as="geometry" />
        </mxCell>
        <mxCell id="rxXCoBThwXI0Z-Vm7pwe-75" value="&quot;Retido&quot;" style="strokeWidth=2;html=1;shape=mxgraph.flowchart.display;whiteSpace=wrap;" vertex="1" parent="1">
          <mxGeometry x="1554" y="426" width="100" height="60" as="geometry" />
        </mxCell>
        <mxCell id="rxXCoBThwXI0Z-Vm7pwe-77" style="edgeStyle=none;curved=1;rounded=0;orthogonalLoop=1;jettySize=auto;html=1;entryX=0.5;entryY=0;entryDx=0;entryDy=0;entryPerimeter=0;fontSize=12;startSize=8;endSize=8;" edge="1" parent="1" source="rxXCoBThwXI0Z-Vm7pwe-53" target="rxXCoBThwXI0Z-Vm7pwe-58">
          <mxGeometry relative="1" as="geometry" />
        </mxCell>
        <mxCell id="rxXCoBThwXI0Z-Vm7pwe-78" style="edgeStyle=none;curved=1;rounded=0;orthogonalLoop=1;jettySize=auto;html=1;entryX=0.51;entryY=0.197;entryDx=0;entryDy=0;entryPerimeter=0;fontSize=12;startSize=8;endSize=8;" edge="1" parent="1" source="rxXCoBThwXI0Z-Vm7pwe-58" target="rxXCoBThwXI0Z-Vm7pwe-59">
          <mxGeometry relative="1" as="geometry" />
        </mxCell>
        <mxCell id="rxXCoBThwXI0Z-Vm7pwe-80" style="edgeStyle=orthogonalEdgeStyle;rounded=0;orthogonalLoop=1;jettySize=auto;html=1;entryX=0.43;entryY=0.03;entryDx=0;entryDy=0;entryPerimeter=0;fontSize=12;startSize=8;endSize=8;" edge="1" parent="1" source="rxXCoBThwXI0Z-Vm7pwe-54" target="rxXCoBThwXI0Z-Vm7pwe-60">
          <mxGeometry relative="1" as="geometry" />
        </mxCell>
        <mxCell id="rxXCoBThwXI0Z-Vm7pwe-83" style="edgeStyle=none;curved=1;rounded=0;orthogonalLoop=1;jettySize=auto;html=1;entryX=1;entryY=0.5;entryDx=0;entryDy=0;entryPerimeter=0;fontSize=12;startSize=8;endSize=8;" edge="1" parent="1" source="rxXCoBThwXI0Z-Vm7pwe-57" target="rxXCoBThwXI0Z-Vm7pwe-63">
          <mxGeometry relative="1" as="geometry" />
        </mxCell>
        <mxCell id="rxXCoBThwXI0Z-Vm7pwe-84" style="edgeStyle=none;curved=1;rounded=0;orthogonalLoop=1;jettySize=auto;html=1;exitX=0.5;exitY=1;exitDx=0;exitDy=0;exitPerimeter=0;entryX=0.5;entryY=0;entryDx=0;entryDy=0;entryPerimeter=0;fontSize=12;startSize=8;endSize=8;" edge="1" parent="1" source="rxXCoBThwXI0Z-Vm7pwe-63" target="rxXCoBThwXI0Z-Vm7pwe-61">
          <mxGeometry relative="1" as="geometry" />
        </mxCell>
        <mxCell id="rxXCoBThwXI0Z-Vm7pwe-85" style="edgeStyle=none;curved=1;rounded=0;orthogonalLoop=1;jettySize=auto;html=1;entryX=0.5;entryY=0;entryDx=0;entryDy=0;entryPerimeter=0;fontSize=12;startSize=8;endSize=8;" edge="1" parent="1" source="rxXCoBThwXI0Z-Vm7pwe-61" target="rxXCoBThwXI0Z-Vm7pwe-64">
          <mxGeometry relative="1" as="geometry" />
        </mxCell>
        <mxCell id="rxXCoBThwXI0Z-Vm7pwe-86" style="edgeStyle=none;curved=1;rounded=0;orthogonalLoop=1;jettySize=auto;html=1;entryX=0.49;entryY=0.197;entryDx=0;entryDy=0;entryPerimeter=0;fontSize=12;startSize=8;endSize=8;" edge="1" parent="1" source="rxXCoBThwXI0Z-Vm7pwe-68" target="rxXCoBThwXI0Z-Vm7pwe-69">
          <mxGeometry relative="1" as="geometry" />
        </mxCell>
        <mxCell id="rxXCoBThwXI0Z-Vm7pwe-87" style="edgeStyle=none;curved=1;rounded=0;orthogonalLoop=1;jettySize=auto;html=1;entryX=0.5;entryY=0;entryDx=0;entryDy=0;entryPerimeter=0;fontSize=12;startSize=8;endSize=8;" edge="1" parent="1" source="rxXCoBThwXI0Z-Vm7pwe-69" target="rxXCoBThwXI0Z-Vm7pwe-71">
          <mxGeometry relative="1" as="geometry" />
        </mxCell>
        <mxCell id="rxXCoBThwXI0Z-Vm7pwe-91" style="edgeStyle=none;curved=1;rounded=0;orthogonalLoop=1;jettySize=auto;html=1;entryX=0.5;entryY=0;entryDx=0;entryDy=0;entryPerimeter=0;fontSize=12;startSize=8;endSize=8;exitX=0.5;exitY=1;exitDx=0;exitDy=0;" edge="1" parent="1" source="rxXCoBThwXI0Z-Vm7pwe-73" target="rxXCoBThwXI0Z-Vm7pwe-70">
          <mxGeometry relative="1" as="geometry" />
        </mxCell>
        <mxCell id="rxXCoBThwXI0Z-Vm7pwe-92" style="edgeStyle=orthogonalEdgeStyle;rounded=0;orthogonalLoop=1;jettySize=auto;html=1;entryX=0.5;entryY=0;entryDx=0;entryDy=0;entryPerimeter=0;fontSize=12;startSize=8;endSize=8;" edge="1" parent="1" source="rxXCoBThwXI0Z-Vm7pwe-70" target="rxXCoBThwXI0Z-Vm7pwe-75">
          <mxGeometry relative="1" as="geometry" />
        </mxCell>
        <mxCell id="rxXCoBThwXI0Z-Vm7pwe-93" style="edgeStyle=orthogonalEdgeStyle;rounded=0;orthogonalLoop=1;jettySize=auto;html=1;fontSize=12;startSize=8;endSize=8;entryX=0.5;entryY=0;entryDx=0;entryDy=0;entryPerimeter=0;" edge="1" parent="1" source="rxXCoBThwXI0Z-Vm7pwe-70" target="rxXCoBThwXI0Z-Vm7pwe-74">
          <mxGeometry relative="1" as="geometry">
            <mxPoint x="1857" y="424" as="targetPoint" />
          </mxGeometry>
        </mxCell>
        <mxCell id="rxXCoBThwXI0Z-Vm7pwe-96" style="edgeStyle=none;curved=1;rounded=0;orthogonalLoop=1;jettySize=auto;html=1;fontSize=12;startSize=8;endSize=8;entryX=0.5;entryY=0;entryDx=0;entryDy=0;entryPerimeter=0;" edge="1" parent="1" source="rxXCoBThwXI0Z-Vm7pwe-94" target="rxXCoBThwXI0Z-Vm7pwe-95">
          <mxGeometry relative="1" as="geometry">
            <mxPoint x="1760" y="660" as="targetPoint" />
          </mxGeometry>
        </mxCell>
        <mxCell id="rxXCoBThwXI0Z-Vm7pwe-94" value="" style="verticalLabelPosition=bottom;verticalAlign=top;html=1;shape=mxgraph.flowchart.on-page_reference;" vertex="1" parent="1">
          <mxGeometry x="1728" y="556" width="60" height="60" as="geometry" />
        </mxCell>
        <mxCell id="rxXCoBThwXI0Z-Vm7pwe-95" value="FIM" style="strokeWidth=2;html=1;shape=mxgraph.flowchart.terminator;whiteSpace=wrap;" vertex="1" parent="1">
          <mxGeometry x="1708" y="700" width="100" height="60" as="geometry" />
        </mxCell>
        <mxCell id="rxXCoBThwXI0Z-Vm7pwe-97" style="edgeStyle=orthogonalEdgeStyle;rounded=0;orthogonalLoop=1;jettySize=auto;html=1;entryX=1;entryY=0.5;entryDx=0;entryDy=0;entryPerimeter=0;fontSize=12;startSize=8;endSize=8;exitX=0.5;exitY=1;exitDx=0;exitDy=0;exitPerimeter=0;" edge="1" parent="1" source="rxXCoBThwXI0Z-Vm7pwe-74" target="rxXCoBThwXI0Z-Vm7pwe-94">
          <mxGeometry relative="1" as="geometry" />
        </mxCell>
        <mxCell id="rxXCoBThwXI0Z-Vm7pwe-99" style="edgeStyle=orthogonalEdgeStyle;rounded=0;orthogonalLoop=1;jettySize=auto;html=1;entryX=0;entryY=0.5;entryDx=0;entryDy=0;entryPerimeter=0;fontSize=12;startSize=8;endSize=8;exitX=0.5;exitY=1;exitDx=0;exitDy=0;exitPerimeter=0;" edge="1" parent="1" source="rxXCoBThwXI0Z-Vm7pwe-75" target="rxXCoBThwXI0Z-Vm7pwe-94">
          <mxGeometry relative="1" as="geometry">
            <Array as="points">
              <mxPoint x="1604" y="586" />
            </Array>
          </mxGeometry>
        </mxCell>
        <mxCell id="rxXCoBThwXI0Z-Vm7pwe-100" value="V" style="text;html=1;align=center;verticalAlign=middle;resizable=0;points=[];autosize=1;strokeColor=none;fillColor=none;fontSize=16;" vertex="1" parent="1">
          <mxGeometry x="1836.5" y="327.5" width="29" height="31" as="geometry" />
        </mxCell>
        <mxCell id="rxXCoBThwXI0Z-Vm7pwe-101" value="F" style="text;html=1;align=center;verticalAlign=middle;resizable=0;points=[];autosize=1;strokeColor=none;fillColor=none;fontSize=16;" vertex="1" parent="1">
          <mxGeometry x="1611.5" y="313.5" width="28" height="31" as="geometry" />
        </mxCell>
        <mxCell id="rxXCoBThwXI0Z-Vm7pwe-102" value="" style="strokeWidth=2;html=1;shape=mxgraph.flowchart.start_2;whiteSpace=wrap;" vertex="1" parent="1">
          <mxGeometry x="2119" y="-332" width="100" height="100" as="geometry" />
        </mxCell>
        <mxCell id="rxXCoBThwXI0Z-Vm7pwe-103" value="&quot;Digite um número&quot;" style="strokeWidth=2;html=1;shape=mxgraph.flowchart.display;whiteSpace=wrap;" vertex="1" parent="1">
          <mxGeometry x="2119" y="-189" width="100" height="65" as="geometry" />
        </mxCell>
        <mxCell id="rxXCoBThwXI0Z-Vm7pwe-104" value="N" style="html=1;strokeWidth=2;shape=manualInput;whiteSpace=wrap;rounded=1;size=26;arcSize=11;" vertex="1" parent="1">
          <mxGeometry x="2124" y="-91" width="100" height="61" as="geometry" />
        </mxCell>
        <mxCell id="rxXCoBThwXI0Z-Vm7pwe-105" value="resto = N mod 2" style="rounded=1;whiteSpace=wrap;html=1;absoluteArcSize=1;arcSize=14;strokeWidth=2;" vertex="1" parent="1">
          <mxGeometry x="2133" y="6.5" width="100" height="100" as="geometry" />
        </mxCell>
        <mxCell id="rxXCoBThwXI0Z-Vm7pwe-106" value="resto = 0" style="strokeWidth=2;html=1;shape=mxgraph.flowchart.decision;whiteSpace=wrap;" vertex="1" parent="1">
          <mxGeometry x="2119" y="133" width="100" height="100" as="geometry" />
        </mxCell>
        <mxCell id="rxXCoBThwXI0Z-Vm7pwe-107" value="&quot;O numero informado é Par&quot;" style="strokeWidth=2;html=1;shape=mxgraph.flowchart.display;whiteSpace=wrap;" vertex="1" parent="1">
          <mxGeometry x="2189" y="273" width="100" height="60" as="geometry" />
        </mxCell>
        <mxCell id="rxXCoBThwXI0Z-Vm7pwe-108" value="&quot;O numero informado é Impar&quot;" style="strokeWidth=2;html=1;shape=mxgraph.flowchart.display;whiteSpace=wrap;" vertex="1" parent="1">
          <mxGeometry x="2033" y="273" width="100" height="60" as="geometry" />
        </mxCell>
        <mxCell id="rxXCoBThwXI0Z-Vm7pwe-132" style="edgeStyle=none;curved=1;rounded=0;orthogonalLoop=1;jettySize=auto;html=1;fontSize=12;startSize=8;endSize=8;" edge="1" parent="1" source="rxXCoBThwXI0Z-Vm7pwe-109" target="rxXCoBThwXI0Z-Vm7pwe-119">
          <mxGeometry relative="1" as="geometry" />
        </mxCell>
        <mxCell id="rxXCoBThwXI0Z-Vm7pwe-109" value="" style="verticalLabelPosition=bottom;verticalAlign=top;html=1;shape=mxgraph.flowchart.on-page_reference;" vertex="1" parent="1">
          <mxGeometry x="2572" y="460" width="60" height="60" as="geometry" />
        </mxCell>
        <mxCell id="rxXCoBThwXI0Z-Vm7pwe-110" value="FIM" style="strokeWidth=2;html=1;shape=mxgraph.flowchart.terminator;whiteSpace=wrap;" vertex="1" parent="1">
          <mxGeometry x="2126" y="527" width="100" height="60" as="geometry" />
        </mxCell>
        <mxCell id="rxXCoBThwXI0Z-Vm7pwe-111" value="" style="strokeWidth=2;html=1;shape=mxgraph.flowchart.start_2;whiteSpace=wrap;" vertex="1" parent="1">
          <mxGeometry x="2547" y="-332" width="100" height="100" as="geometry" />
        </mxCell>
        <mxCell id="rxXCoBThwXI0Z-Vm7pwe-123" style="edgeStyle=none;curved=1;rounded=0;orthogonalLoop=1;jettySize=auto;html=1;entryX=0.5;entryY=0;entryDx=0;entryDy=0;fontSize=12;startSize=8;endSize=8;" edge="1" parent="1" source="rxXCoBThwXI0Z-Vm7pwe-112" target="rxXCoBThwXI0Z-Vm7pwe-113">
          <mxGeometry relative="1" as="geometry" />
        </mxCell>
        <mxCell id="rxXCoBThwXI0Z-Vm7pwe-112" value="&quot;Digite o peso dos Peixes&quot;" style="strokeWidth=2;html=1;shape=mxgraph.flowchart.display;whiteSpace=wrap;" vertex="1" parent="1">
          <mxGeometry x="2547" y="-192" width="100" height="65" as="geometry" />
        </mxCell>
        <mxCell id="rxXCoBThwXI0Z-Vm7pwe-124" style="edgeStyle=none;curved=1;rounded=0;orthogonalLoop=1;jettySize=auto;html=1;entryX=0.5;entryY=0;entryDx=0;entryDy=0;fontSize=12;startSize=8;endSize=8;" edge="1" parent="1" source="rxXCoBThwXI0Z-Vm7pwe-113" target="rxXCoBThwXI0Z-Vm7pwe-114">
          <mxGeometry relative="1" as="geometry" />
        </mxCell>
        <mxCell id="rxXCoBThwXI0Z-Vm7pwe-113" value="peso_p" style="html=1;strokeWidth=2;shape=manualInput;whiteSpace=wrap;rounded=1;size=26;arcSize=0;" vertex="1" parent="1">
          <mxGeometry x="2547" y="-92" width="100" height="61" as="geometry" />
        </mxCell>
        <mxCell id="rxXCoBThwXI0Z-Vm7pwe-125" style="edgeStyle=none;curved=1;rounded=0;orthogonalLoop=1;jettySize=auto;html=1;fontSize=12;startSize=8;endSize=8;" edge="1" parent="1" source="rxXCoBThwXI0Z-Vm7pwe-114" target="rxXCoBThwXI0Z-Vm7pwe-115">
          <mxGeometry relative="1" as="geometry" />
        </mxCell>
        <mxCell id="rxXCoBThwXI0Z-Vm7pwe-114" value="peso_ex = (peso_p-50)" style="rounded=1;whiteSpace=wrap;html=1;absoluteArcSize=1;arcSize=14;strokeWidth=2;" vertex="1" parent="1">
          <mxGeometry x="2549" y="17" width="100" height="100" as="geometry" />
        </mxCell>
        <mxCell id="rxXCoBThwXI0Z-Vm7pwe-126" style="edgeStyle=none;curved=1;rounded=0;orthogonalLoop=1;jettySize=auto;html=1;exitX=0;exitY=0.5;exitDx=0;exitDy=0;exitPerimeter=0;entryX=1;entryY=0.5;entryDx=0;entryDy=0;fontSize=12;startSize=8;endSize=8;" edge="1" parent="1" source="rxXCoBThwXI0Z-Vm7pwe-115" target="rxXCoBThwXI0Z-Vm7pwe-118">
          <mxGeometry relative="1" as="geometry" />
        </mxCell>
        <mxCell id="rxXCoBThwXI0Z-Vm7pwe-128" style="edgeStyle=none;curved=1;rounded=0;orthogonalLoop=1;jettySize=auto;html=1;entryX=0;entryY=0.5;entryDx=0;entryDy=0;fontSize=12;startSize=8;endSize=8;" edge="1" parent="1" source="rxXCoBThwXI0Z-Vm7pwe-115" target="rxXCoBThwXI0Z-Vm7pwe-116">
          <mxGeometry relative="1" as="geometry" />
        </mxCell>
        <mxCell id="rxXCoBThwXI0Z-Vm7pwe-115" value="peso_ex &amp;gt;0" style="strokeWidth=2;html=1;shape=mxgraph.flowchart.decision;whiteSpace=wrap;" vertex="1" parent="1">
          <mxGeometry x="2549" y="196" width="100" height="100" as="geometry" />
        </mxCell>
        <mxCell id="rxXCoBThwXI0Z-Vm7pwe-116" value="taxa = peso_ex*4" style="rounded=1;whiteSpace=wrap;html=1;absoluteArcSize=1;arcSize=14;strokeWidth=2;" vertex="1" parent="1">
          <mxGeometry x="2706" y="193" width="100" height="100" as="geometry" />
        </mxCell>
        <mxCell id="rxXCoBThwXI0Z-Vm7pwe-117" value="&quot;O peso excedente é de&quot;, peso_ex,&quot; E a taxa é de . taxa" style="strokeWidth=2;html=1;shape=mxgraph.flowchart.display;whiteSpace=wrap;" vertex="1" parent="1">
          <mxGeometry x="2706" y="353" width="100" height="60" as="geometry" />
        </mxCell>
        <mxCell id="rxXCoBThwXI0Z-Vm7pwe-118" value="taxa = 0 , peso_ex=0" style="rounded=1;whiteSpace=wrap;html=1;absoluteArcSize=1;arcSize=14;strokeWidth=2;" vertex="1" parent="1">
          <mxGeometry x="2392" y="199" width="100" height="100" as="geometry" />
        </mxCell>
        <mxCell id="rxXCoBThwXI0Z-Vm7pwe-119" value="FIM" style="strokeWidth=2;html=1;shape=mxgraph.flowchart.terminator;whiteSpace=wrap;" vertex="1" parent="1">
          <mxGeometry x="2557" y="559" width="100" height="60" as="geometry" />
        </mxCell>
        <mxCell id="rxXCoBThwXI0Z-Vm7pwe-120" value="" style="verticalLabelPosition=bottom;verticalAlign=top;html=1;shape=mxgraph.flowchart.on-page_reference;" vertex="1" parent="1">
          <mxGeometry x="2136" y="405" width="60" height="60" as="geometry" />
        </mxCell>
        <mxCell id="rxXCoBThwXI0Z-Vm7pwe-121" value="&quot;O peso excedente é de&quot;, peso_ex,&quot; E a taxa é de . taxa" style="strokeWidth=2;html=1;shape=mxgraph.flowchart.display;whiteSpace=wrap;fontStyle=1" vertex="1" parent="1">
          <mxGeometry x="2392" y="350" width="100" height="58" as="geometry" />
        </mxCell>
        <mxCell id="rxXCoBThwXI0Z-Vm7pwe-122" style="edgeStyle=none;curved=1;rounded=0;orthogonalLoop=1;jettySize=auto;html=1;entryX=0.5;entryY=0;entryDx=0;entryDy=0;entryPerimeter=0;fontSize=12;startSize=8;endSize=8;" edge="1" parent="1" source="rxXCoBThwXI0Z-Vm7pwe-111" target="rxXCoBThwXI0Z-Vm7pwe-112">
          <mxGeometry relative="1" as="geometry" />
        </mxCell>
        <mxCell id="rxXCoBThwXI0Z-Vm7pwe-127" style="edgeStyle=none;curved=1;rounded=0;orthogonalLoop=1;jettySize=auto;html=1;entryX=0.5;entryY=0;entryDx=0;entryDy=0;entryPerimeter=0;fontSize=12;startSize=8;endSize=8;" edge="1" parent="1" source="rxXCoBThwXI0Z-Vm7pwe-118" target="rxXCoBThwXI0Z-Vm7pwe-121">
          <mxGeometry relative="1" as="geometry" />
        </mxCell>
        <mxCell id="rxXCoBThwXI0Z-Vm7pwe-129" style="edgeStyle=none;curved=1;rounded=0;orthogonalLoop=1;jettySize=auto;html=1;entryX=0.5;entryY=0;entryDx=0;entryDy=0;entryPerimeter=0;fontSize=12;startSize=8;endSize=8;" edge="1" parent="1" source="rxXCoBThwXI0Z-Vm7pwe-116" target="rxXCoBThwXI0Z-Vm7pwe-117">
          <mxGeometry relative="1" as="geometry" />
        </mxCell>
        <mxCell id="rxXCoBThwXI0Z-Vm7pwe-130" style="edgeStyle=orthogonalEdgeStyle;rounded=0;orthogonalLoop=1;jettySize=auto;html=1;entryX=1;entryY=0.5;entryDx=0;entryDy=0;entryPerimeter=0;fontSize=12;startSize=8;endSize=8;exitX=0.5;exitY=1;exitDx=0;exitDy=0;exitPerimeter=0;" edge="1" parent="1" source="rxXCoBThwXI0Z-Vm7pwe-117" target="rxXCoBThwXI0Z-Vm7pwe-109">
          <mxGeometry relative="1" as="geometry" />
        </mxCell>
        <mxCell id="rxXCoBThwXI0Z-Vm7pwe-133" style="edgeStyle=orthogonalEdgeStyle;rounded=0;orthogonalLoop=1;jettySize=auto;html=1;fontSize=12;startSize=8;endSize=8;exitX=0.5;exitY=1;exitDx=0;exitDy=0;exitPerimeter=0;entryX=-0.054;entryY=0.623;entryDx=0;entryDy=0;entryPerimeter=0;" edge="1" parent="1" source="rxXCoBThwXI0Z-Vm7pwe-121" target="rxXCoBThwXI0Z-Vm7pwe-109">
          <mxGeometry relative="1" as="geometry">
            <mxPoint x="2426" y="615" as="targetPoint" />
            <Array as="points">
              <mxPoint x="2442" y="502" />
            </Array>
          </mxGeometry>
        </mxCell>
      </root>
    </mxGraphModel>
  </diagram>
</mxfile>
